<svg xmlns="http://www.w3.org/2000/svg" xmlns:xlink="http://www.w3.org/1999/xlink" width="500" zoomAndPan="magnify" viewBox="0 0 375 374.999991" height="500" preserveAspectRatio="xMidYMid meet" version="1.2"><defs><clipPath id="ba3afd25cc"><path d="M 73.910156 79.644531 L 301 79.644531 L 301 222.894531 L 73.910156 222.894531 Z M 73.910156 79.644531 "/></clipPath></defs><g id="b612637287"><g clip-rule="nonzero" clip-path="url(#ba3afd25cc)"><path style=" stroke:none;fill-rule:nonzero;fill:#ffc331;fill-opacity:1;" d="M 199.101562 222.894531 C 196.214844 222.894531 193.324219 222.894531 190.4375 222.894531 C 190.285156 222.738281 190.089844 222.796875 189.910156 222.796875 C 189.039062 222.785156 188.160156 222.863281 187.296875 222.761719 C 186.480469 222.667969 185.664062 222.707031 184.84375 222.621094 C 184.082031 222.539062 183.3125 222.429688 182.542969 222.484375 C 182.492188 222.488281 182.441406 222.484375 182.390625 222.46875 C 181.871094 222.320312 181.328125 222.378906 180.796875 222.304688 C 179.972656 222.183594 179.136719 222.167969 178.304688 222.070312 C 177.328125 221.960938 176.355469 221.816406 175.378906 221.683594 C 174.320312 221.542969 173.257812 221.433594 172.203125 221.25 C 170.9375 221.035156 169.667969 220.828125 168.402344 220.59375 C 166.746094 220.289062 165.09375 219.949219 163.445312 219.582031 C 162.078125 219.273438 160.714844 218.921875 159.355469 218.574219 C 157.230469 218.03125 155.132812 217.386719 153.042969 216.722656 C 151.796875 216.324219 150.5625 215.882812 149.335938 215.445312 C 148.074219 214.992188 146.8125 214.539062 145.566406 214.050781 C 143.570312 213.265625 141.597656 212.429688 139.601562 211.652344 C 139.136719 211.472656 138.832031 211.195312 138.648438 210.761719 C 138.566406 210.574219 138.457031 210.46875 138.269531 210.386719 C 136.328125 209.53125 134.375 208.671875 132.4375 207.792969 C 130.804688 207.058594 129.171875 206.3125 127.542969 205.550781 C 125.933594 204.796875 124.332031 204.03125 122.734375 203.25 C 121.121094 202.457031 119.507812 201.667969 117.917969 200.832031 C 116.078125 199.863281 114.257812 198.855469 112.441406 197.847656 C 111.488281 197.320312 110.539062 196.78125 109.609375 196.214844 C 108.304688 195.425781 107.019531 194.605469 105.730469 193.796875 C 103.183594 192.207031 100.714844 190.507812 98.296875 188.734375 C 96.246094 187.234375 94.253906 185.660156 92.316406 184.003906 C 91.222656 183.066406 90.136719 182.125 89.09375 181.136719 C 87.976562 180.078125 86.882812 178.992188 85.84375 177.839844 C 84.9375 176.832031 84.050781 175.8125 83.183594 174.769531 C 82.003906 173.351562 80.9375 171.851562 79.917969 170.320312 C 79.109375 169.09375 78.371094 167.8125 77.6875 166.5 C 76.941406 165.070312 76.292969 163.597656 75.757812 162.082031 C 74.910156 159.679688 74.257812 157.226562 74.136719 154.660156 C 74.128906 154.515625 74.109375 154.390625 73.933594 154.363281 C 73.933594 153.15625 73.933594 151.945312 73.933594 150.734375 C 74.144531 150.707031 74.125 150.542969 74.136719 150.394531 C 74.195312 149.238281 74.386719 148.105469 74.644531 146.976562 C 75.199219 144.507812 76.066406 142.160156 77.234375 139.917969 C 77.636719 139.148438 78.085938 138.402344 78.542969 137.65625 C 79.617188 135.902344 80.921875 134.335938 82.3125 132.839844 C 83.464844 131.601562 84.726562 130.46875 86.039062 129.398438 C 87.175781 128.476562 88.359375 127.632812 89.582031 126.84375 C 91.210938 125.808594 92.886719 124.867188 94.65625 124.078125 C 95.757812 123.589844 96.867188 123.113281 98 122.707031 C 100.082031 121.964844 102.199219 121.324219 104.355469 120.820312 C 105.085938 120.648438 105.816406 120.453125 106.554688 120.3125 C 107.816406 120.070312 109.085938 119.851562 110.347656 119.628906 C 111.054688 119.507812 111.765625 119.375 112.476562 119.296875 C 113.503906 119.191406 114.53125 119.0625 115.5625 118.960938 C 116.492188 118.871094 117.421875 118.773438 118.355469 118.703125 C 119.554688 118.613281 120.757812 118.5625 121.957031 118.492188 C 123.414062 118.410156 124.871094 118.496094 126.332031 118.402344 C 127.480469 118.324219 128.636719 118.394531 129.796875 118.457031 C 132.003906 118.574219 134.21875 118.394531 136.4375 118.566406 C 137.824219 118.671875 139.21875 118.617188 140.609375 118.648438 C 142.972656 118.703125 145.339844 118.773438 147.703125 118.59375 C 148.734375 118.511719 149.777344 118.558594 150.816406 118.503906 C 151.734375 118.457031 152.648438 118.335938 153.578125 118.371094 C 153.613281 118.371094 153.640625 118.371094 153.675781 118.367188 C 154.5625 118.210938 155.472656 118.179688 156.367188 118.09375 C 157.367188 118 158.359375 117.863281 159.351562 117.746094 C 160.3125 117.636719 161.261719 117.425781 162.210938 117.261719 C 163.402344 117.0625 164.574219 116.808594 165.738281 116.496094 C 167.648438 115.984375 169.546875 115.4375 171.398438 114.734375 C 172.949219 114.144531 174.480469 113.507812 175.976562 112.792969 C 176.988281 112.308594 177.996094 111.804688 178.980469 111.257812 C 180.238281 110.550781 181.472656 109.816406 182.6875 109.046875 C 184.171875 108.101562 185.59375 107.070312 187.035156 106.054688 C 187.898438 105.449219 188.742188 104.8125 189.5625 104.152344 C 190.828125 103.140625 192.117188 102.148438 193.359375 101.105469 C 194.417969 100.207031 195.507812 99.351562 196.578125 98.464844 C 197.453125 97.738281 198.316406 96.996094 199.191406 96.273438 C 200.191406 95.457031 201.191406 94.652344 202.199219 93.855469 C 203.460938 92.863281 204.710938 91.851562 206.003906 90.902344 C 207.355469 89.914062 208.71875 88.949219 210.125 88.035156 C 212.628906 86.402344 215.21875 84.933594 217.945312 83.703125 C 219.257812 83.109375 220.605469 82.589844 221.964844 82.121094 C 223.421875 81.621094 224.914062 81.234375 226.414062 80.886719 C 227.632812 80.605469 228.867188 80.375 230.105469 80.207031 C 230.765625 80.117188 231.425781 80 232.097656 79.964844 C 232.496094 79.945312 232.902344 79.933594 233.289062 79.863281 C 234 79.734375 234.726562 79.738281 235.4375 79.707031 C 236.992188 79.644531 238.5625 79.6875 240.121094 79.6875 C 240.222656 79.6875 240.328125 79.671875 240.425781 79.699219 C 241.128906 79.890625 241.855469 79.789062 242.570312 79.859375 C 243.46875 79.949219 244.371094 80.011719 245.265625 80.117188 C 246.359375 80.242188 247.449219 80.386719 248.535156 80.570312 C 249.953125 80.804688 251.363281 81.0625 252.769531 81.382812 C 255.4375 81.980469 258.054688 82.757812 260.609375 83.722656 C 262.078125 84.28125 263.539062 84.871094 264.957031 85.5625 C 266.703125 86.417969 268.425781 87.320312 270.085938 88.339844 C 271.207031 89.035156 272.335938 89.734375 273.410156 90.5 C 274.839844 91.519531 276.234375 92.585938 277.582031 93.714844 C 278.683594 94.640625 279.773438 95.582031 280.804688 96.582031 C 282.535156 98.242188 284.160156 99.996094 285.699219 101.839844 C 286.574219 102.898438 287.421875 103.972656 288.242188 105.070312 C 289.285156 106.464844 290.226562 107.933594 291.148438 109.414062 C 292.152344 111.019531 293.089844 112.667969 293.949219 114.355469 C 295.078125 116.566406 296.089844 118.828125 296.96875 121.15625 C 297.785156 123.324219 298.5 125.519531 299.09375 127.757812 C 299.550781 129.484375 299.921875 131.238281 300.226562 132.996094 C 300.355469 133.703125 300.460938 134.414062 300.546875 135.128906 C 300.636719 135.910156 300.664062 136.695312 300.773438 137.472656 C 300.882812 138.285156 300.921875 139.101562 300.9375 139.917969 C 300.984375 141.863281 300.953125 143.8125 300.953125 145.761719 C 300.953125 145.898438 300.96875 146.035156 300.949219 146.167969 C 300.785156 147.210938 300.785156 148.261719 300.675781 149.308594 C 300.574219 150.257812 300.453125 151.199219 300.324219 152.140625 C 300.171875 153.230469 299.964844 154.3125 299.753906 155.398438 C 299.300781 157.734375 298.695312 160.027344 297.984375 162.292969 C 297.574219 163.605469 297.117188 164.902344 296.628906 166.1875 C 295.941406 168.023438 295.183594 169.835938 294.339844 171.597656 C 293.21875 173.925781 292.070312 176.246094 290.71875 178.453125 C 289.925781 179.75 289.160156 181.066406 288.300781 182.332031 C 287.628906 183.328125 286.945312 184.324219 286.246094 185.308594 C 285.082031 186.945312 283.847656 188.527344 282.585938 190.089844 C 281.636719 191.257812 280.65625 192.402344 279.652344 193.523438 C 278.660156 194.640625 277.621094 195.710938 276.59375 196.789062 C 276.15625 197.25 275.660156 197.65625 275.207031 198.105469 C 273.730469 199.570312 272.183594 200.953125 270.59375 202.292969 C 269.785156 202.972656 268.992188 203.664062 268.148438 204.296875 C 266.332031 205.667969 264.507812 207.027344 262.566406 208.226562 C 261.46875 208.90625 260.382812 209.597656 259.246094 210.207031 C 257.875 210.949219 256.5 211.6875 255.070312 212.316406 C 253.335938 213.082031 251.59375 213.8125 249.796875 214.414062 C 247.730469 215.097656 245.632812 215.683594 243.503906 216.132812 C 242.214844 216.402344 240.914062 216.636719 239.613281 216.84375 C 239.039062 216.933594 238.453125 216.960938 237.878906 217.109375 C 236.390625 217.480469 234.894531 217.84375 233.398438 218.203125 C 232.175781 218.488281 230.957031 218.78125 229.730469 219.039062 C 228.375 219.320312 227.007812 219.566406 225.644531 219.816406 C 224.394531 220.042969 223.144531 220.257812 221.894531 220.464844 C 220.957031 220.621094 220.015625 220.757812 219.074219 220.898438 C 218.265625 221.023438 217.460938 221.15625 216.648438 221.261719 C 215.738281 221.382812 214.820312 221.445312 213.914062 221.59375 C 212.90625 221.753906 211.894531 221.84375 210.882812 221.957031 C 210.035156 222.050781 209.183594 222.113281 208.335938 222.203125 C 207.441406 222.296875 206.542969 222.378906 205.644531 222.453125 C 204.664062 222.539062 203.679688 222.617188 202.699219 222.65625 C 201.644531 222.703125 200.59375 222.84375 199.535156 222.78125 C 199.414062 222.785156 199.238281 222.746094 199.101562 222.894531 Z M 195.515625 214.328125 C 197.292969 214.328125 199.070312 214.351562 200.84375 214.226562 C 200.910156 214.222656 200.980469 214.226562 201.046875 214.21875 C 202.121094 214.050781 203.207031 214.050781 204.289062 213.945312 C 205.121094 213.859375 205.953125 213.777344 206.785156 213.707031 C 207.761719 213.621094 208.734375 213.457031 209.710938 213.324219 C 210.769531 213.183594 211.832031 213.0625 212.886719 212.898438 C 213.960938 212.730469 215.015625 212.503906 216.089844 212.328125 C 218.152344 211.980469 220.1875 211.527344 222.222656 211.042969 C 223.117188 210.832031 224 210.554688 224.90625 210.421875 C 226 210.261719 227.089844 210.109375 228.160156 209.859375 C 230.363281 209.351562 232.53125 208.710938 234.621094 207.824219 C 236.773438 206.910156 238.832031 205.828125 240.792969 204.5625 C 242.511719 203.457031 244.152344 202.25 245.71875 200.9375 C 247.144531 199.742188 248.527344 198.496094 249.839844 197.1875 C 250.882812 196.148438 251.867188 195.050781 252.828125 193.933594 C 253.457031 193.199219 254.101562 192.46875 254.691406 191.703125 C 255.785156 190.285156 256.832031 188.835938 257.820312 187.339844 C 258.714844 185.976562 259.574219 184.601562 260.324219 183.160156 C 261.222656 181.453125 262.089844 179.730469 262.804688 177.9375 C 263.550781 176.054688 264.226562 174.144531 264.734375 172.171875 C 265.105469 170.734375 265.410156 169.28125 265.640625 167.8125 C 265.78125 166.917969 265.914062 166.027344 265.992188 165.128906 C 266.085938 164.148438 266.132812 163.160156 266.128906 162.171875 C 266.109375 160.164062 266.125 158.15625 265.832031 156.164062 C 265.652344 154.90625 265.464844 153.648438 265.171875 152.417969 C 264.507812 149.621094 263.589844 146.914062 262.382812 144.308594 C 261.359375 142.101562 260.199219 139.960938 258.847656 137.933594 C 258.011719 136.679688 257.121094 135.464844 256.152344 134.3125 C 255.539062 133.582031 254.945312 132.835938 254.25 132.175781 C 253.765625 131.71875 253.332031 131.207031 252.84375 130.75 C 251.976562 129.933594 251.09375 129.144531 250.167969 128.390625 C 248.550781 127.082031 246.847656 125.910156 245.058594 124.84375 C 243.367188 123.84375 241.597656 123 239.769531 122.28125 C 237.746094 121.480469 235.644531 120.890625 233.511719 120.441406 C 231.355469 119.988281 229.167969 119.707031 226.972656 119.535156 C 226.054688 119.464844 225.128906 119.558594 224.210938 119.425781 C 223.839844 119.367188 223.480469 119.507812 223.113281 119.519531 C 222.480469 119.539062 221.84375 119.535156 221.210938 119.601562 C 220.363281 119.6875 219.519531 119.796875 218.675781 119.914062 C 217.113281 120.125 215.589844 120.515625 214.09375 120.996094 C 212.386719 121.546875 210.734375 122.242188 209.15625 123.101562 C 208.054688 123.707031 206.960938 124.320312 205.917969 125.027344 C 204.867188 125.738281 203.824219 126.46875 202.800781 127.226562 C 201.742188 128.019531 200.703125 128.839844 199.679688 129.675781 C 199.035156 130.207031 198.394531 130.746094 197.75 131.277344 C 196.886719 131.988281 196.019531 132.699219 195.152344 133.40625 C 194.34375 134.058594 193.550781 134.71875 192.726562 135.355469 C 192.160156 135.792969 191.585938 136.226562 191.011719 136.660156 C 189.957031 137.460938 188.859375 138.203125 187.765625 138.933594 C 186.976562 139.460938 186.128906 139.910156 185.296875 140.386719 C 183.578125 141.375 181.765625 142.167969 179.902344 142.835938 C 177.910156 143.546875 175.875 144.082031 173.796875 144.449219 C 172.445312 144.691406 171.089844 144.847656 169.730469 145.003906 C 168.816406 145.109375 167.894531 145.164062 166.984375 145.199219 C 165.914062 145.238281 164.84375 145.308594 163.769531 145.304688 C 162.089844 145.300781 160.417969 145.335938 158.742188 145.246094 C 156.765625 145.132812 154.785156 145.210938 152.804688 145.132812 C 151.199219 145.066406 149.589844 145.125 147.980469 145.203125 C 146.8125 145.265625 145.640625 145.316406 144.472656 145.402344 C 143.457031 145.476562 142.449219 145.597656 141.433594 145.714844 C 140.457031 145.824219 139.484375 145.984375 138.519531 146.160156 C 137.085938 146.421875 135.667969 146.734375 134.265625 147.140625 C 132.425781 147.664062 130.628906 148.308594 128.898438 149.132812 C 127.460938 149.824219 126.097656 150.644531 124.808594 151.582031 C 124.078125 152.113281 123.34375 152.644531 122.691406 153.277344 C 121.921875 154.019531 121.152344 154.765625 120.449219 155.582031 C 119.386719 156.824219 118.492188 158.175781 117.75 159.625 C 117.121094 160.847656 116.636719 162.136719 116.292969 163.472656 C 116.039062 164.476562 115.832031 165.5 115.789062 166.53125 C 115.75 167.5625 115.71875 168.601562 115.855469 169.644531 C 116.007812 170.792969 116.234375 171.917969 116.5625 173.023438 C 117.25 175.34375 118.355469 177.46875 119.648438 179.492188 C 120.726562 181.175781 121.9375 182.757812 123.296875 184.214844 C 124.386719 185.378906 125.5 186.515625 126.703125 187.566406 C 127.726562 188.453125 128.757812 189.324219 129.816406 190.175781 C 131.277344 191.355469 132.808594 192.433594 134.347656 193.503906 C 135.609375 194.386719 136.925781 195.199219 138.234375 196.007812 C 139.359375 196.703125 140.507812 197.363281 141.65625 198.019531 C 142.53125 198.519531 143.425781 198.976562 144.304688 199.460938 C 145.886719 200.316406 147.5 201.109375 149.113281 201.890625 C 150.726562 202.667969 152.367188 203.398438 154 204.140625 C 155.175781 204.675781 156.359375 205.183594 157.53125 205.71875 C 157.984375 205.925781 158.46875 206.085938 158.734375 206.574219 C 158.820312 206.726562 158.984375 206.832031 159.164062 206.90625 C 160.050781 207.257812 160.925781 207.640625 161.820312 207.984375 C 164.199219 208.902344 166.570312 209.8125 169.007812 210.558594 C 170.367188 210.972656 171.734375 211.371094 173.113281 211.726562 C 174.957031 212.207031 176.824219 212.59375 178.695312 212.933594 C 179.75 213.117188 180.804688 213.300781 181.859375 213.4375 C 182.773438 213.550781 183.679688 213.679688 184.589844 213.773438 C 185.386719 213.859375 186.183594 213.949219 186.980469 214.035156 C 187.875 214.132812 188.777344 214.171875 189.675781 214.238281 C 190.542969 214.296875 191.414062 214.292969 192.285156 214.339844 C 193.363281 214.375 194.441406 214.328125 195.515625 214.328125 Z M 195.515625 214.328125 "/></g><path style=" stroke:none;fill-rule:nonzero;fill:#b8092e;fill-opacity:1;" d="M 195.515625 214.328125 C 194.441406 214.328125 193.363281 214.375 192.289062 214.3125 C 191.417969 214.261719 190.546875 214.273438 189.679688 214.210938 C 188.785156 214.148438 187.875 214.105469 186.984375 214.011719 C 186.1875 213.925781 185.394531 213.835938 184.597656 213.75 C 183.683594 213.648438 182.773438 213.523438 181.867188 213.410156 C 180.808594 213.28125 179.753906 213.097656 178.703125 212.90625 C 176.828125 212.574219 174.964844 212.183594 173.121094 211.703125 C 171.746094 211.34375 170.378906 210.949219 169.015625 210.535156 C 166.574219 209.792969 164.199219 208.875 161.824219 207.960938 C 160.933594 207.617188 160.0625 207.230469 159.167969 206.882812 C 158.988281 206.8125 158.820312 206.707031 158.742188 206.550781 C 158.472656 206.066406 157.992188 205.898438 157.535156 205.691406 C 156.363281 205.160156 155.179688 204.648438 154.003906 204.117188 C 152.371094 203.375 150.730469 202.644531 149.117188 201.863281 C 147.5 201.078125 145.886719 200.292969 144.3125 199.433594 C 143.429688 198.957031 142.53125 198.492188 141.660156 197.996094 C 140.511719 197.339844 139.363281 196.679688 138.242188 195.984375 C 136.929688 195.171875 135.617188 194.367188 134.351562 193.480469 C 132.816406 192.40625 131.28125 191.328125 129.820312 190.148438 C 128.769531 189.296875 127.730469 188.425781 126.707031 187.539062 C 125.503906 186.492188 124.386719 185.347656 123.300781 184.191406 C 121.941406 182.734375 120.726562 181.152344 119.65625 179.46875 C 118.355469 177.445312 117.257812 175.316406 116.566406 173 C 116.234375 171.890625 116.007812 170.769531 115.859375 169.621094 C 115.726562 168.578125 115.753906 167.539062 115.796875 166.503906 C 115.835938 165.472656 116.042969 164.449219 116.300781 163.449219 C 116.640625 162.113281 117.125 160.824219 117.753906 159.597656 C 118.496094 158.152344 119.394531 156.796875 120.457031 155.558594 C 121.15625 154.742188 121.925781 153.996094 122.699219 153.25 C 123.347656 152.625 124.082031 152.089844 124.8125 151.558594 C 126.105469 150.621094 127.464844 149.800781 128.90625 149.109375 C 130.632812 148.28125 132.425781 147.636719 134.269531 147.113281 C 135.671875 146.714844 137.09375 146.398438 138.523438 146.136719 C 139.488281 145.960938 140.460938 145.800781 141.441406 145.6875 C 142.453125 145.570312 143.460938 145.453125 144.476562 145.375 C 145.648438 145.285156 146.816406 145.234375 147.984375 145.179688 C 149.589844 145.097656 151.203125 145.042969 152.8125 145.109375 C 154.792969 145.183594 156.769531 145.109375 158.746094 145.21875 C 160.421875 145.316406 162.097656 145.28125 163.773438 145.28125 C 164.84375 145.28125 165.914062 145.214844 166.988281 145.175781 C 167.90625 145.140625 168.828125 145.082031 169.734375 144.976562 C 171.089844 144.820312 172.449219 144.660156 173.800781 144.421875 C 175.878906 144.050781 177.917969 143.523438 179.90625 142.8125 C 181.769531 142.144531 183.585938 141.351562 185.300781 140.363281 C 186.128906 139.890625 186.976562 139.441406 187.769531 138.90625 C 188.871094 138.171875 189.960938 137.433594 191.015625 136.632812 C 191.589844 136.203125 192.164062 135.769531 192.734375 135.328125 C 193.550781 134.695312 194.351562 134.035156 195.15625 133.378906 C 196.027344 132.675781 196.894531 131.964844 197.757812 131.253906 C 198.402344 130.726562 199.042969 130.179688 199.6875 129.652344 C 200.707031 128.816406 201.742188 127.992188 202.804688 127.203125 C 203.828125 126.441406 204.867188 125.710938 205.921875 125 C 206.964844 124.296875 208.058594 123.679688 209.164062 123.078125 C 210.738281 122.210938 212.390625 121.519531 214.101562 120.972656 C 215.597656 120.492188 217.117188 120.097656 218.679688 119.886719 C 219.519531 119.773438 220.363281 119.660156 221.214844 119.574219 C 221.847656 119.507812 222.484375 119.515625 223.117188 119.496094 C 223.488281 119.484375 223.84375 119.34375 224.21875 119.398438 C 225.132812 119.535156 226.0625 119.4375 226.976562 119.507812 C 229.175781 119.679688 231.359375 119.964844 233.515625 120.417969 C 235.648438 120.863281 237.746094 121.453125 239.773438 122.253906 C 241.597656 122.976562 243.367188 123.816406 245.066406 124.820312 C 246.851562 125.882812 248.554688 127.058594 250.171875 128.367188 C 251.101562 129.117188 251.980469 129.910156 252.847656 130.726562 C 253.335938 131.183594 253.769531 131.691406 254.253906 132.152344 C 254.949219 132.804688 255.550781 133.554688 256.160156 134.285156 C 257.125 135.441406 258.019531 136.65625 258.855469 137.910156 C 260.210938 139.933594 261.367188 142.070312 262.386719 144.28125 C 263.589844 146.886719 264.511719 149.601562 265.175781 152.394531 C 265.46875 153.628906 265.65625 154.882812 265.835938 156.136719 C 266.128906 158.136719 266.113281 160.140625 266.132812 162.148438 C 266.144531 163.140625 266.089844 164.128906 266 165.105469 C 265.917969 165.996094 265.785156 166.894531 265.644531 167.785156 C 265.414062 169.257812 265.113281 170.707031 264.738281 172.148438 C 264.234375 174.113281 263.558594 176.023438 262.808594 177.914062 C 262.097656 179.710938 261.226562 181.429688 260.332031 183.136719 C 259.574219 184.574219 258.71875 185.953125 257.828125 187.3125 C 256.839844 188.808594 255.792969 190.261719 254.699219 191.675781 C 254.109375 192.441406 253.464844 193.171875 252.832031 193.910156 C 251.871094 195.027344 250.890625 196.125 249.847656 197.164062 C 248.53125 198.476562 247.152344 199.71875 245.726562 200.910156 C 244.15625 202.226562 242.515625 203.433594 240.796875 204.539062 C 238.832031 205.804688 236.777344 206.882812 234.625 207.796875 C 232.535156 208.683594 230.375 209.324219 228.167969 209.832031 C 227.09375 210.082031 226 210.238281 224.914062 210.398438 C 224.003906 210.535156 223.117188 210.804688 222.226562 211.019531 C 220.195312 211.5 218.15625 211.953125 216.09375 212.300781 C 215.027344 212.484375 213.964844 212.707031 212.890625 212.871094 C 211.839844 213.039062 210.773438 213.160156 209.71875 213.300781 C 208.738281 213.429688 207.773438 213.597656 206.789062 213.683594 C 205.957031 213.753906 205.128906 213.835938 204.296875 213.917969 C 203.21875 214.03125 202.128906 214.03125 201.050781 214.191406 C 200.984375 214.203125 200.914062 214.195312 200.851562 214.203125 C 199.070312 214.351562 197.292969 214.328125 195.515625 214.328125 Z M 195.515625 214.328125 "/><g style="fill:#b8092e;fill-opacity:1;"><g transform="translate(38.820825, 282.775506)"><path style="stroke:none" d="M 4.671875 0 C 4.328125 0 4.0625 -0.0976562 3.875 -0.296875 C 3.6875 -0.503906 3.59375 -0.800781 3.59375 -1.1875 L 3.59375 -37.171875 C 3.59375 -37.816406 3.882812 -38.140625 4.46875 -38.140625 L 15.109375 -38.140625 C 15.484375 -38.140625 15.753906 -38.085938 15.921875 -37.984375 C 16.097656 -37.878906 16.238281 -37.675781 16.34375 -37.375 L 24.109375 -15.828125 C 24.210938 -15.554688 24.332031 -15.421875 24.46875 -15.421875 C 24.601562 -15.421875 24.722656 -15.554688 24.828125 -15.828125 L 32.234375 -36.96875 C 32.441406 -37.75 32.816406 -38.140625 33.359375 -38.140625 L 44.421875 -38.140625 C 44.929688 -38.140625 45.1875 -37.832031 45.1875 -37.21875 L 45.1875 -1.234375 C 45.1875 -0.785156 45.082031 -0.46875 44.875 -0.28125 C 44.664062 -0.09375 44.34375 0 43.90625 0 L 37.265625 0 C 36.859375 0 36.578125 -0.078125 36.421875 -0.234375 C 36.265625 -0.390625 36.1875 -0.65625 36.1875 -1.03125 L 36.1875 -26.625 C 36.1875 -26.863281 36.132812 -26.984375 36.03125 -26.984375 C 35.925781 -26.984375 35.828125 -26.847656 35.734375 -26.578125 L 26.734375 -0.828125 C 26.554688 -0.273438 26.195312 0 25.65625 0 L 21.390625 0 C 20.765625 0 20.382812 -0.273438 20.25 -0.828125 L 11.359375 -26.21875 C 11.253906 -26.488281 11.148438 -26.625 11.046875 -26.625 C 10.910156 -26.625 10.84375 -26.472656 10.84375 -26.171875 L 10.84375 -0.921875 C 10.84375 -0.546875 10.78125 -0.296875 10.65625 -0.171875 C 10.539062 -0.0546875 10.296875 0 9.921875 0 Z M 4.671875 0 "/></g></g><g style="fill:#b8092e;fill-opacity:1;"><g transform="translate(87.598135, 282.775506)"><path style="stroke:none" d="M 3.59375 -37.171875 C 3.59375 -37.816406 3.867188 -38.140625 4.421875 -38.140625 L 30.328125 -38.140625 C 30.835938 -38.140625 31.09375 -37.847656 31.09375 -37.265625 L 31.046875 -32.640625 C 31.046875 -31.921875 30.6875 -31.5625 29.96875 -31.5625 L 13.578125 -31.5625 C 12.921875 -31.5625 12.59375 -31.285156 12.59375 -30.734375 L 12.59375 -23.28125 C 12.59375 -22.695312 12.847656 -22.40625 13.359375 -22.40625 L 24.265625 -22.40625 C 24.847656 -22.40625 25.140625 -22.132812 25.140625 -21.59375 L 25.140625 -16.65625 C 25.140625 -16.175781 24.863281 -15.9375 24.3125 -15.9375 L 13.3125 -15.9375 C 12.832031 -15.9375 12.59375 -15.726562 12.59375 -15.3125 L 12.59375 -7.25 C 12.59375 -7.007812 12.632812 -6.835938 12.71875 -6.734375 C 12.800781 -6.628906 12.945312 -6.578125 13.15625 -6.578125 L 30.734375 -6.578125 C 31.359375 -6.578125 31.671875 -6.320312 31.671875 -5.8125 L 31.671875 -0.921875 C 31.671875 -0.304688 31.328125 0 30.640625 0 L 4.734375 0 C 4.316406 0 4.019531 -0.0820312 3.84375 -0.25 C 3.675781 -0.425781 3.59375 -0.703125 3.59375 -1.078125 Z M 3.59375 -37.171875 "/></g></g><g style="fill:#b8092e;fill-opacity:1;"><g transform="translate(121.212846, 282.775506)"><path style="stroke:none" d="M 4.734375 -38.140625 C 10.390625 -38.140625 14.207031 -38.125 16.1875 -38.09375 C 22.976562 -37.882812 28.035156 -36.148438 31.359375 -32.890625 C 34.679688 -29.640625 36.34375 -25.082031 36.34375 -19.21875 C 36.34375 -13.1875 34.609375 -8.472656 31.140625 -5.078125 C 27.679688 -1.691406 22.613281 0 15.9375 0 L 4.78125 0 C 4.363281 0 4.0625 -0.09375 3.875 -0.28125 C 3.6875 -0.46875 3.59375 -0.785156 3.59375 -1.234375 L 3.59375 -37.109375 C 3.59375 -37.492188 3.675781 -37.757812 3.84375 -37.90625 C 4.019531 -38.0625 4.316406 -38.140625 4.734375 -38.140625 Z M 13.0625 -31.765625 C 12.75 -31.765625 12.59375 -31.523438 12.59375 -31.046875 L 12.59375 -7.046875 C 12.59375 -6.765625 12.632812 -6.570312 12.71875 -6.46875 C 12.800781 -6.375 12.984375 -6.328125 13.265625 -6.328125 L 14.234375 -6.328125 C 18.554688 -6.328125 21.753906 -7.328125 23.828125 -9.328125 C 25.898438 -11.335938 26.9375 -14.65625 26.9375 -19.28125 C 26.9375 -23.5625 26.0625 -26.644531 24.3125 -28.53125 C 22.5625 -30.414062 19.851562 -31.460938 16.1875 -31.671875 Z M 13.0625 -31.765625 "/></g></g><g style="fill:#b8092e;fill-opacity:1;"><g transform="translate(159.813228, 282.775506)"><path style="stroke:none" d="M 11.765625 -38.140625 C 12.316406 -38.140625 12.59375 -37.832031 12.59375 -37.21875 L 12.59375 -1.234375 C 12.59375 -0.785156 12.488281 -0.46875 12.28125 -0.28125 C 12.082031 -0.09375 11.722656 0 11.203125 0 L 4.734375 0 C 4.316406 0 4.019531 -0.0820312 3.84375 -0.25 C 3.675781 -0.425781 3.59375 -0.703125 3.59375 -1.078125 L 3.59375 -37.171875 C 3.59375 -37.816406 3.867188 -38.140625 4.421875 -38.140625 Z M 11.765625 -38.140625 "/></g></g><g style="fill:#b8092e;fill-opacity:1;"><g transform="translate(176.003795, 282.775506)"><path style="stroke:none" d="M 3.59375 -37.171875 C 3.59375 -37.816406 3.867188 -38.140625 4.421875 -38.140625 L 29.921875 -38.140625 C 30.429688 -38.140625 30.6875 -37.847656 30.6875 -37.265625 L 30.640625 -32.640625 C 30.640625 -31.921875 30.296875 -31.5625 29.609375 -31.5625 L 13.578125 -31.5625 C 13.234375 -31.5625 12.984375 -31.492188 12.828125 -31.359375 C 12.671875 -31.222656 12.59375 -31.015625 12.59375 -30.734375 L 12.59375 -22.765625 C 12.59375 -22.222656 12.847656 -21.953125 13.359375 -21.953125 L 24.515625 -21.953125 C 25.066406 -21.953125 25.34375 -21.675781 25.34375 -21.125 L 25.34375 -16.25 C 25.34375 -15.769531 25.085938 -15.53125 24.578125 -15.53125 L 13.3125 -15.53125 C 12.832031 -15.53125 12.59375 -15.304688 12.59375 -14.859375 L 12.59375 -1.1875 C 12.59375 -0.738281 12.488281 -0.425781 12.28125 -0.25 C 12.082031 -0.0820312 11.742188 0 11.265625 0 L 4.734375 0 C 4.316406 0 4.019531 -0.0820312 3.84375 -0.25 C 3.675781 -0.425781 3.59375 -0.703125 3.59375 -1.078125 Z M 3.59375 -37.171875 "/></g></g><g style="fill:#b8092e;fill-opacity:1;"><g transform="translate(208.436343, 282.775506)"><path style="stroke:none" d="M 3.59375 -37.171875 C 3.59375 -37.816406 3.867188 -38.140625 4.421875 -38.140625 L 11.765625 -38.140625 C 12.316406 -38.140625 12.59375 -37.832031 12.59375 -37.21875 L 12.59375 -7.25 C 12.59375 -7.007812 12.632812 -6.835938 12.71875 -6.734375 C 12.800781 -6.628906 12.945312 -6.578125 13.15625 -6.578125 L 29.5625 -6.578125 C 30.175781 -6.578125 30.484375 -6.320312 30.484375 -5.8125 L 30.484375 -0.921875 C 30.484375 -0.648438 30.394531 -0.425781 30.21875 -0.25 C 30.050781 -0.0820312 29.8125 0 29.5 0 L 4.734375 0 C 4.316406 0 4.019531 -0.0820312 3.84375 -0.25 C 3.675781 -0.425781 3.59375 -0.703125 3.59375 -1.078125 Z M 3.59375 -37.171875 "/></g></g><g style="fill:#b8092e;fill-opacity:1;"><g transform="translate(240.663295, 282.775506)"><path style="stroke:none" d="M 19.953125 0.515625 C 16.347656 0.515625 13.21875 -0.257812 10.5625 -1.8125 C 7.90625 -3.375 5.863281 -5.613281 4.4375 -8.53125 C 3.019531 -11.445312 2.3125 -14.910156 2.3125 -18.921875 C 2.3125 -22.960938 3.03125 -26.460938 4.46875 -29.421875 C 5.90625 -32.390625 7.953125 -34.671875 10.609375 -36.265625 C 13.265625 -37.859375 16.378906 -38.65625 19.953125 -38.65625 C 23.472656 -38.65625 26.550781 -37.859375 29.1875 -36.265625 C 31.832031 -34.671875 33.875 -32.390625 35.3125 -29.421875 C 36.75 -26.460938 37.46875 -22.976562 37.46875 -18.96875 C 37.46875 -14.988281 36.753906 -11.535156 35.328125 -8.609375 C 33.910156 -5.679688 31.882812 -3.425781 29.25 -1.84375 C 26.613281 -0.269531 23.515625 0.515625 19.953125 0.515625 Z M 19.953125 -5.8125 C 22.796875 -5.8125 24.859375 -6.835938 26.140625 -8.890625 C 27.421875 -10.953125 28.0625 -14.273438 28.0625 -18.859375 C 28.0625 -23.554688 27.398438 -26.984375 26.078125 -29.140625 C 24.765625 -31.304688 22.722656 -32.390625 19.953125 -32.390625 C 17.097656 -32.390625 15.007812 -31.304688 13.6875 -29.140625 C 12.375 -26.984375 11.71875 -23.554688 11.71875 -18.859375 C 11.71875 -14.273438 12.367188 -10.953125 13.671875 -8.890625 C 14.972656 -6.835938 17.066406 -5.8125 19.953125 -5.8125 Z M 19.953125 -5.8125 "/></g></g><g style="fill:#b8092e;fill-opacity:1;"><g transform="translate(280.44584, 282.775506)"><path style="stroke:none" d="M 52.75 -38.140625 C 53.5625 -38.140625 53.96875 -37.78125 53.96875 -37.0625 C 53.96875 -36.820312 53.953125 -36.648438 53.921875 -36.546875 L 43.4375 -1.078125 C 43.300781 -0.703125 43.113281 -0.425781 42.875 -0.25 C 42.632812 -0.0820312 42.304688 0 41.890625 0 L 36.34375 0 C 35.488281 0 34.957031 -0.359375 34.75 -1.078125 L 28.265625 -23.546875 C 28.203125 -23.890625 28.117188 -24.0625 28.015625 -24.0625 C 27.941406 -24.0625 27.820312 -23.851562 27.65625 -23.4375 L 21.125 -1.078125 C 21.019531 -0.703125 20.847656 -0.425781 20.609375 -0.25 C 20.367188 -0.0820312 20.023438 0 19.578125 0 L 13.875 0 C 13.4375 0 13.09375 -0.0820312 12.84375 -0.25 C 12.601562 -0.425781 12.414062 -0.703125 12.28125 -1.078125 L 1.796875 -36.546875 C 1.765625 -36.648438 1.75 -36.820312 1.75 -37.0625 C 1.75 -37.78125 2.175781 -38.140625 3.03125 -38.140625 L 9.453125 -38.140625 C 9.867188 -38.140625 10.175781 -38.070312 10.375 -37.9375 C 10.582031 -37.800781 10.722656 -37.578125 10.796875 -37.265625 L 17.421875 -13.875 C 17.523438 -13.46875 17.628906 -13.265625 17.734375 -13.265625 C 17.835938 -13.265625 17.941406 -13.414062 18.046875 -13.71875 L 24.671875 -37.265625 C 24.773438 -37.847656 25.222656 -38.140625 26.015625 -38.140625 L 31.515625 -38.140625 C 31.960938 -38.140625 32.28125 -38.070312 32.46875 -37.9375 C 32.65625 -37.800781 32.800781 -37.578125 32.90625 -37.265625 L 39.640625 -13.515625 C 39.703125 -13.273438 39.800781 -13.144531 39.9375 -13.125 C 40.070312 -13.113281 40.160156 -13.226562 40.203125 -13.46875 L 46.734375 -37.265625 C 46.898438 -37.847656 47.359375 -38.140625 48.109375 -38.140625 Z M 52.75 -38.140625 "/></g></g></g></svg>